<svg width="24" height="24" viewBox="0 0 24 24" fill="none" xmlns="http://www.w3.org/2000/svg">
<path d="M0 12C0 5.37258 5.37258 0 12 0V0C18.6274 0 24 5.37258 24 12V12C24 18.6274 18.6274 24 12 24V24C5.37258 24 0 18.6274 0 12V12Z" fill="url(#paint0_linear)"/>
<path d="M12.3471 13.516C12.2338 13.5868 12.1063 13.6152 11.9929 13.6152C11.8796 13.6152 11.7521 13.5868 11.6387 13.516L6 10.0732V14.6494C6 15.627 6.79339 16.4203 7.77096 16.4203H16.229C17.2066 16.4203 18 15.627 18 14.6494V10.0732L12.3471 13.516Z" fill="black"/>
<path d="M16.229 7.57971H7.77096C6.93507 7.57971 6.22668 8.17475 6.05667 8.96814L12.0071 12.5951L17.9433 8.96814C17.7733 8.17475 17.0649 7.57971 16.229 7.57971Z" fill="black"/>
<defs>
<linearGradient id="paint0_linear" x1="0" y1="0" x2="24" y2="24" gradientUnits="userSpaceOnUse">
<stop stop-color="#A2FACF"/>
<stop offset="1" stop-color="#64ACFF"/>
</linearGradient>
</defs>
</svg>
