<svg width="24" height="24" viewBox="0 0 24 24" fill="none" xmlns="http://www.w3.org/2000/svg">
<path d="M0 12C0 5.37258 5.37258 0 12 0V0C18.6274 0 24 5.37258 24 12V12C24 18.6274 18.6274 24 12 24V24C5.37258 24 0 18.6274 0 12V12Z" fill="url(#paint0_linear)"/>
<path d="M16.7185 12.0319C16.763 11.7501 16.7908 11.4412 16.7978 11.0948C16.7951 9.60933 16.084 9.08371 15.9472 8.8373C16.1487 7.7118 15.9138 7.19984 15.8046 7.02459C15.4017 6.88157 14.4028 7.3937 13.857 7.75422C12.9672 7.49374 11.0867 7.51916 10.3815 7.82164C9.0803 6.88995 8.39211 7.03201 8.39211 7.03201C8.39211 7.03201 7.9472 7.82981 8.2745 8.99696C7.84638 9.54251 7.52729 9.92823 7.52729 10.9513C7.52729 11.1964 7.54251 11.4279 7.56833 11.6507C7.93702 13.5892 9.47308 14.4255 10.9819 14.5698C10.7549 14.7423 10.4823 15.0688 10.4446 15.4471C10.1593 15.6316 9.58541 15.6925 9.13914 15.5522C8.51386 15.3547 8.2745 14.1164 7.33811 14.2931C7.1355 14.331 7.17577 14.4646 7.35123 14.5785C7.6365 14.7636 7.90518 14.9936 8.11228 15.4858C8.27134 15.8637 8.60588 16.5384 9.66358 16.5384C10.0835 16.5384 10.3776 16.4888 10.3776 16.4888C10.3776 16.4888 10.3856 17.4517 10.3856 17.8273C10.3856 18.2594 9.80229 18.3808 9.80229 18.5881C9.80229 18.6706 9.99534 18.6784 10.1505 18.6784C10.4571 18.6784 11.095 18.423 11.095 17.9738C11.095 17.6169 11.1007 16.4173 11.1007 16.2072C11.1007 15.7482 11.3467 15.6021 11.3467 15.6021C11.3467 15.6021 11.3768 18.0523 11.2875 18.3808C11.1828 18.7671 10.9931 18.7123 10.9931 18.8842C10.9931 19.1407 11.76 18.9469 12.0144 18.3853C12.2112 17.9467 12.1231 15.5438 12.1231 15.5438L12.3282 15.5394C12.3282 15.5394 12.3306 16.6398 12.3235 17.1426C12.3161 17.6633 12.2624 18.3216 12.5717 18.6323C12.7747 18.8367 13.3966 19.1952 13.3966 18.8676C13.3966 18.6777 12.9611 18.5207 12.9611 18.0062V15.6362C13.2257 15.6362 13.2804 16.4152 13.2804 16.4152L13.3758 17.8626C13.3758 17.8626 13.3124 18.3908 13.9463 18.6112C14.1701 18.6895 14.6488 18.7109 14.6712 18.5793C14.6937 18.4474 14.0948 18.2524 14.0891 17.8436C14.086 17.5947 14.1003 17.4489 14.1003 16.366C14.1003 15.2837 13.9549 14.8833 13.4482 14.5642C14.9175 14.4134 16.4436 13.7573 16.7185 12.0319Z" fill="black"/>
<defs>
<linearGradient id="paint0_linear" x1="0" y1="0" x2="24" y2="24" gradientUnits="userSpaceOnUse">
<stop stop-color="#A2FACF"/>
<stop offset="1" stop-color="#64ACFF"/>
</linearGradient>
</defs>
</svg>
