<svg width="24" height="24" viewBox="0 0 24 24" fill="none" xmlns="http://www.w3.org/2000/svg">
<path d="M0 12C0 5.37258 5.37258 0 12 0V0C18.6274 0 24 5.37258 24 12V12C24 18.6274 18.6274 24 12 24V24C5.37258 24 0 18.6274 0 12V12Z" fill="url(#paint0_linear)"/>
<path fill-rule="evenodd" clip-rule="evenodd" d="M6.8245 10.0094C5.72517 11.1088 5.72517 12.8912 6.8245 13.9906L10.0094 17.1755C11.1088 18.2748 12.8912 18.2748 13.9906 17.1755L17.1755 13.9906C18.2748 12.8912 18.2748 11.1088 17.1755 10.0094L13.9906 6.8245C12.8912 5.72517 11.1088 5.72517 10.0094 6.8245L6.8245 10.0094V10.0094ZM13.3934 13.3934C14.163 12.6238 14.163 11.3761 13.3934 10.6066C12.6239 9.83704 11.3761 9.83704 10.6066 10.6066C9.83704 11.3761 9.83704 12.6238 10.6066 13.3934C11.3761 14.1629 12.6239 14.1629 13.3934 13.3934Z" fill="black"/>
<defs>
<linearGradient id="paint0_linear" x1="0" y1="0" x2="24" y2="24" gradientUnits="userSpaceOnUse">
<stop stop-color="#A2FACF"/>
<stop offset="1" stop-color="#64ACFF"/>
</linearGradient>
</defs>
</svg>
