<svg width="24" height="24" viewBox="0 0 24 24" fill="none" xmlns="http://www.w3.org/2000/svg">
<path d="M0 12C0 5.37258 5.37258 0 12 0C18.6274 0 24 5.37258 24 12C24 18.6274 18.6274 24 12 24C5.37258 24 0 18.6274 0 12Z" fill="url(#paint0_linear)"/>
<path d="M8.79327 9.85571H6.38425C6.27734 9.85571 6.1907 9.94257 6.1907 10.0497V17.8059C6.1907 17.9131 6.27734 17.9999 6.38425 17.9999H8.79327C8.90019 17.9999 8.98682 17.9131 8.98682 17.8059V10.0497C8.98682 9.94257 8.90019 9.85571 8.79327 9.85571Z" fill="black"/>
<path d="M7.58965 6C6.71311 6 6 6.71391 6 7.59141C6 8.4693 6.71311 9.18348 7.58965 9.18348C8.4655 9.18348 9.17803 8.46927 9.17803 7.59141C9.17806 6.71391 8.4655 6 7.58965 6Z" fill="black"/>
<path d="M14.9208 9.66309C13.9533 9.66309 13.238 10.0799 12.8042 10.5536V10.0498C12.8042 9.94272 12.7176 9.85586 12.6107 9.85586H10.3036C10.1967 9.85586 10.11 9.94272 10.11 10.0498V17.8061C10.11 17.9132 10.1967 18 10.3036 18H12.7073C12.8143 18 12.9009 17.9132 12.9009 17.8061V13.9685C12.9009 12.6754 13.2514 12.1716 14.1508 12.1716C15.1304 12.1716 15.2083 12.9792 15.2083 14.0351V17.8061C15.2083 17.9133 15.2949 18.0001 15.4018 18.0001H17.8065C17.9134 18.0001 18 17.9133 18 17.8061V13.5517C18 11.6288 17.6342 9.66309 14.9208 9.66309Z" fill="black"/>
<defs>
<linearGradient id="paint0_linear" x1="0" y1="0" x2="24" y2="24" gradientUnits="userSpaceOnUse">
<stop stop-color="#A2FACF"/>
<stop offset="1" stop-color="#64ACFF"/>
</linearGradient>
</defs>
</svg>
