<svg width="24" height="24" viewBox="0 0 24 24" fill="none" xmlns="http://www.w3.org/2000/svg">
<path d="M0 12C0 5.37258 5.37258 0 12 0V0C18.6274 0 24 5.37258 24 12V12C24 18.6274 18.6274 24 12 24V24C5.37258 24 0 18.6274 0 12V12Z" fill="url(#paint0_linear)"/>
<path d="M17.9765 8.28504C17.5272 8.48285 17.0513 8.61341 16.564 8.67254C17.0771 8.36417 17.4612 7.88057 17.6455 7.31104C17.17 7.58854 16.643 7.79054 16.082 7.90304C15.7119 7.50726 15.2214 7.24475 14.6868 7.15629C14.1522 7.06783 13.6033 7.15837 13.1255 7.41384C12.6476 7.66931 12.2674 8.07542 12.044 8.56911C11.8206 9.06279 11.7665 9.61643 11.89 10.144C9.845 10.0475 8.0335 9.06504 6.82 7.58104C6.5994 7.95595 6.48433 8.38356 6.487 8.81854C6.487 9.67354 6.922 10.425 7.581 10.8665C7.19043 10.8541 6.80849 10.7485 6.467 10.5585V10.5885C6.46678 11.1567 6.66313 11.7075 7.02275 12.1474C7.38237 12.5873 7.88311 12.8893 8.44 13.002C8.07915 13.0987 7.70121 13.1133 7.334 13.0445C7.49206 13.5335 7.79883 13.961 8.21151 14.2673C8.62418 14.5736 9.12218 14.7434 9.636 14.753C8.76576 15.436 7.69124 15.8067 6.585 15.8055C6.39 15.8055 6.1955 15.794 6 15.772C7.12785 16.4942 8.43926 16.8775 9.7785 16.8765C14.305 16.8765 16.7775 13.1285 16.7775 9.88404C16.7775 9.77904 16.7775 9.67404 16.77 9.56904C17.253 9.22147 17.6696 8.78995 18 8.29504L17.9765 8.28504Z" fill="black"/>
<defs>
<linearGradient id="paint0_linear" x1="0" y1="0" x2="24" y2="24" gradientUnits="userSpaceOnUse">
<stop stop-color="#A2FACF"/>
<stop offset="1" stop-color="#64ACFF"/>
</linearGradient>
</defs>
</svg>
