<svg width="53" height="47" viewBox="0 0 53 47" fill="none" xmlns="http://www.w3.org/2000/svg">
<path d="M16.5116 1.16L16.7742 0.73448L16.4151 0.512889L16.1363 0.829684L16.5116 1.16ZM23.2796 5.336L23.6988 5.60849L23.9778 5.17928L23.5422 4.91048L23.2796 5.336ZM14.9276 22.904L14.4327 22.8333L14.3861 23.1593L14.6672 23.3308L14.9276 22.904ZM23.4236 28.088H23.9236V27.8074L23.6841 27.6612L23.4236 28.088ZM20.9756 38.024L20.5283 37.8003L20.5232 37.8111L20.9756 38.024ZM16.2236 45.656V46.156H16.4472L16.5962 45.9894L16.2236 45.656ZM3.40763 41.336L3.74397 40.966L3.74102 40.9634L3.40763 41.336ZM44.5916 1.16L44.8542 0.73448L44.495 0.512889L44.2163 0.829684L44.5916 1.16ZM51.3596 5.336L51.7789 5.60849L52.0578 5.17928L51.6222 4.91048L51.3596 5.336ZM43.0076 22.904L42.5127 22.8333L42.4661 23.1593L42.7472 23.3308L43.0076 22.904ZM51.5036 28.088H52.0036V27.8074L51.7641 27.6612L51.5036 28.088ZM49.0556 38.024L48.6083 37.8003L48.6032 37.8111L49.0556 38.024ZM44.3036 45.656V46.156H44.5272L44.6762 45.9894L44.3036 45.656ZM31.4876 41.336L31.824 40.966L31.821 40.9634L31.4876 41.336ZM1.17163 32.408C1.17163 23.7636 6.3491 13.4652 16.887 1.49031L16.1363 0.829684C5.55415 12.8548 0.171625 23.3884 0.171625 32.408H1.17163ZM16.2491 1.58552L23.0171 5.76151L23.5422 4.91048L16.7742 0.73448L16.2491 1.58552ZM22.8604 5.0635C17.8663 12.7468 15.0255 18.6831 14.4327 22.8333L15.4226 22.9747C15.9817 19.0608 18.709 13.2852 23.6988 5.60849L22.8604 5.0635ZM14.6672 23.3308L23.1632 28.5148L23.6841 27.6612L15.1881 22.4772L14.6672 23.3308ZM22.9236 28.088C22.9236 31.3638 22.1287 34.5997 20.5284 37.8004L21.4228 38.2476C23.0865 34.9203 23.9236 31.5322 23.9236 28.088H22.9236ZM20.5232 37.8111C18.999 41.05 17.4394 43.5474 15.851 45.3226L16.5962 45.9894C18.2719 44.1166 19.8802 41.526 21.428 38.2369L20.5232 37.8111ZM16.2236 45.156C10.9389 45.156 6.79809 43.7425 3.74396 40.966L3.07129 41.706C6.35317 44.6895 10.7563 46.156 16.2236 46.156V45.156ZM3.74102 40.9634C2.08064 39.4778 1.17163 36.6878 1.17163 32.408H0.171625C0.171625 36.7682 1.08661 39.9302 3.07423 41.7086L3.74102 40.9634ZM29.2516 32.408C29.2516 23.7636 34.4291 13.4652 44.967 1.49031L44.2163 0.829684C33.6342 12.8548 28.2516 23.3884 28.2516 32.408H29.2516ZM44.3291 1.58552L51.0971 5.76151L51.6222 4.91048L44.8542 0.73448L44.3291 1.58552ZM50.9404 5.0635C45.9463 12.7468 43.1055 18.6831 42.5127 22.8333L43.5026 22.9747C44.0617 19.0608 46.789 13.2852 51.7789 5.60849L50.9404 5.0635ZM42.7472 23.3308L51.2432 28.5148L51.7641 27.6612L43.2681 22.4772L42.7472 23.3308ZM51.0036 28.088C51.0036 31.3638 50.2087 34.5997 48.6084 37.8004L49.5028 38.2476C51.1665 34.9203 52.0036 31.5322 52.0036 28.088H51.0036ZM48.6032 37.8111C47.079 41.05 45.5194 43.5474 43.931 45.3226L44.6762 45.9894C46.3519 44.1166 47.9602 41.526 49.508 38.2369L48.6032 37.8111ZM44.3036 45.156C39.0189 45.156 34.8781 43.7425 31.824 40.966L31.1513 41.706C34.4332 44.6895 38.8363 46.156 44.3036 46.156V45.156ZM31.821 40.9634C30.1606 39.4778 29.2516 36.6878 29.2516 32.408H28.2516C28.2516 36.7682 29.1666 39.9302 31.1542 41.7086L31.821 40.9634Z" fill="#8193B2"/>
</svg>
